# xmcd CD database file generated by Grip 3.0.4
# 
# Track frame offsets:
#       150
#       5598
#       25907
#       41448
#       49106
#       66655
#       84323
#       91142
#       109740
#       114194
#       131040
#       148106
#       166714
#       183315
#       188354
#       204705
# 
# Disc length: 3199 seconds
# 
# Revision: 4
# Processed by: cddbd v1.5.2PL0 Copyright (c) Steve Scherf et al.
# Submitted via: Grip 3.0.4
# 
DISCID=d00c7d10
DTITLE=Korn - Issues
DYEAR=1999
DGENRE=Metal
TTITLE0=Dead
TTITLE1=Falling Away From Me
TTITLE2=Trash
TTITLE3=4 U
TTITLE4=Beg for Me
TTITLE5=Make Me Bad
TTITLE6=It's Gonna Go Away
TTITLE7=Wake Up
TTITLE8=Am I Going Crazy
TTITLE9=Hey Daddy
TTITLE10=Somebody Someone
TTITLE11=No Way
TTITLE12=Let's Get This Party Started
TTITLE13=Wish You Could Be Me
TTITLE14=Counting
TTITLE15=Dirty
EXTD=
EXTT0=
EXTT1=
EXTT2=
EXTT3=
EXTT4=
EXTT5=
EXTT6=
EXTT7=
EXTT8=
EXTT9=
EXTT10=
EXTT11=
EXTT12=
EXTT13=
EXTT14=
EXTT15=
PLAYORDER=
